<svg xmlns="http://www.w3.org/2000/svg" xmlns:xlink="http://www.w3.org/1999/xlink" width="150" zoomAndPan="magnify" viewBox="0 0 112.5 74.999997" height="100" preserveAspectRatio="xMidYMid meet" version="1.0"><defs><g/></defs><g fill="#000000" fill-opacity="1"><g transform="translate(2.314421, 44.220128)"><g><path d="M 14.109375 -14.78125 L 14.109375 0 L 10.515625 0 L 10.515625 -6.09375 L 4.90625 -6.09375 L 4.90625 0 L 1.3125 0 L 1.3125 -14.78125 L 4.90625 -14.78125 L 4.90625 -9 L 10.515625 -9 L 10.515625 -14.78125 Z M 14.109375 -14.78125 "/></g></g></g><g fill="#000000" fill-opacity="1"><g transform="translate(17.704145, 44.220128)"><g><path d="M 0.59375 -5.890625 C 0.59375 -7.097656 0.816406 -8.160156 1.265625 -9.078125 C 1.722656 -9.992188 2.34375 -10.695312 3.125 -11.1875 C 3.914062 -11.675781 4.796875 -11.921875 5.765625 -11.921875 C 6.597656 -11.921875 7.328125 -11.75 7.953125 -11.40625 C 8.578125 -11.070312 9.054688 -10.632812 9.390625 -10.09375 L 9.390625 -11.75 L 13 -11.75 L 13 0 L 9.390625 0 L 9.390625 -1.65625 C 9.046875 -1.113281 8.5625 -0.671875 7.9375 -0.328125 C 7.3125 0.00390625 6.582031 0.171875 5.75 0.171875 C 4.789062 0.171875 3.914062 -0.078125 3.125 -0.578125 C 2.34375 -1.078125 1.722656 -1.785156 1.265625 -2.703125 C 0.816406 -3.628906 0.59375 -4.691406 0.59375 -5.890625 Z M 9.390625 -5.875 C 9.390625 -6.769531 9.140625 -7.476562 8.640625 -8 C 8.148438 -8.519531 7.546875 -8.78125 6.828125 -8.78125 C 6.109375 -8.78125 5.5 -8.523438 5 -8.015625 C 4.5 -7.503906 4.25 -6.796875 4.25 -5.890625 C 4.25 -4.992188 4.5 -4.28125 5 -3.75 C 5.5 -3.226562 6.109375 -2.96875 6.828125 -2.96875 C 7.546875 -2.96875 8.148438 -3.226562 8.640625 -3.75 C 9.140625 -4.269531 9.390625 -4.976562 9.390625 -5.875 Z M 9.390625 -5.875 "/></g></g></g><g fill="#000000" fill-opacity="1"><g transform="translate(31.999107, 44.220128)"><g><path d="M 16.296875 -11.875 C 17.765625 -11.875 18.925781 -11.429688 19.78125 -10.546875 C 20.644531 -9.660156 21.078125 -8.429688 21.078125 -6.859375 L 21.078125 0 L 17.5 0 L 17.5 -6.375 C 17.5 -7.132812 17.296875 -7.722656 16.890625 -8.140625 C 16.492188 -8.554688 15.945312 -8.765625 15.25 -8.765625 C 14.550781 -8.765625 14 -8.554688 13.59375 -8.140625 C 13.195312 -7.722656 13 -7.132812 13 -6.375 L 13 0 L 9.421875 0 L 9.421875 -6.375 C 9.421875 -7.132812 9.21875 -7.722656 8.8125 -8.140625 C 8.414062 -8.554688 7.863281 -8.765625 7.15625 -8.765625 C 6.457031 -8.765625 5.90625 -8.554688 5.5 -8.140625 C 5.101562 -7.722656 4.90625 -7.132812 4.90625 -6.375 L 4.90625 0 L 1.3125 0 L 1.3125 -11.75 L 4.90625 -11.75 L 4.90625 -10.28125 C 5.269531 -10.769531 5.742188 -11.15625 6.328125 -11.4375 C 6.921875 -11.726562 7.59375 -11.875 8.34375 -11.875 C 9.226562 -11.875 10.015625 -11.679688 10.703125 -11.296875 C 11.398438 -10.921875 11.945312 -10.382812 12.34375 -9.6875 C 12.75 -10.332031 13.300781 -10.859375 14 -11.265625 C 14.707031 -11.671875 15.472656 -11.875 16.296875 -11.875 Z M 16.296875 -11.875 "/></g></g></g><g fill="#000000" fill-opacity="1"><g transform="translate(54.294205, 44.220128)"><g><path d="M 16.296875 -11.875 C 17.765625 -11.875 18.925781 -11.429688 19.78125 -10.546875 C 20.644531 -9.660156 21.078125 -8.429688 21.078125 -6.859375 L 21.078125 0 L 17.5 0 L 17.5 -6.375 C 17.5 -7.132812 17.296875 -7.722656 16.890625 -8.140625 C 16.492188 -8.554688 15.945312 -8.765625 15.25 -8.765625 C 14.550781 -8.765625 14 -8.554688 13.59375 -8.140625 C 13.195312 -7.722656 13 -7.132812 13 -6.375 L 13 0 L 9.421875 0 L 9.421875 -6.375 C 9.421875 -7.132812 9.21875 -7.722656 8.8125 -8.140625 C 8.414062 -8.554688 7.863281 -8.765625 7.15625 -8.765625 C 6.457031 -8.765625 5.90625 -8.554688 5.5 -8.140625 C 5.101562 -7.722656 4.90625 -7.132812 4.90625 -6.375 L 4.90625 0 L 1.3125 0 L 1.3125 -11.75 L 4.90625 -11.75 L 4.90625 -10.28125 C 5.269531 -10.769531 5.742188 -11.15625 6.328125 -11.4375 C 6.921875 -11.726562 7.59375 -11.875 8.34375 -11.875 C 9.226562 -11.875 10.015625 -11.679688 10.703125 -11.296875 C 11.398438 -10.921875 11.945312 -10.382812 12.34375 -9.6875 C 12.75 -10.332031 13.300781 -10.859375 14 -11.265625 C 14.707031 -11.671875 15.472656 -11.875 16.296875 -11.875 Z M 16.296875 -11.875 "/></g></g></g><g fill="#000000" fill-opacity="1"><g transform="translate(76.589303, 44.220128)"><g><path d="M 0.59375 -5.890625 C 0.59375 -7.097656 0.816406 -8.160156 1.265625 -9.078125 C 1.722656 -9.992188 2.34375 -10.695312 3.125 -11.1875 C 3.914062 -11.675781 4.796875 -11.921875 5.765625 -11.921875 C 6.597656 -11.921875 7.328125 -11.75 7.953125 -11.40625 C 8.578125 -11.070312 9.054688 -10.632812 9.390625 -10.09375 L 9.390625 -11.75 L 13 -11.75 L 13 0 L 9.390625 0 L 9.390625 -1.65625 C 9.046875 -1.113281 8.5625 -0.671875 7.9375 -0.328125 C 7.3125 0.00390625 6.582031 0.171875 5.75 0.171875 C 4.789062 0.171875 3.914062 -0.078125 3.125 -0.578125 C 2.34375 -1.078125 1.722656 -1.785156 1.265625 -2.703125 C 0.816406 -3.628906 0.59375 -4.691406 0.59375 -5.890625 Z M 9.390625 -5.875 C 9.390625 -6.769531 9.140625 -7.476562 8.640625 -8 C 8.148438 -8.519531 7.546875 -8.78125 6.828125 -8.78125 C 6.109375 -8.78125 5.5 -8.523438 5 -8.015625 C 4.5 -7.503906 4.25 -6.796875 4.25 -5.890625 C 4.25 -4.992188 4.5 -4.28125 5 -3.75 C 5.5 -3.226562 6.109375 -2.96875 6.828125 -2.96875 C 7.546875 -2.96875 8.148438 -3.226562 8.640625 -3.75 C 9.140625 -4.269531 9.390625 -4.976562 9.390625 -5.875 Z M 9.390625 -5.875 "/></g></g></g><g fill="#000000" fill-opacity="1"><g transform="translate(90.884265, 44.220128)"><g><path d="M 0.59375 -5.890625 C 0.59375 -7.097656 0.816406 -8.160156 1.265625 -9.078125 C 1.722656 -9.992188 2.34375 -10.695312 3.125 -11.1875 C 3.914062 -11.675781 4.796875 -11.921875 5.765625 -11.921875 C 6.535156 -11.921875 7.238281 -11.757812 7.875 -11.4375 C 8.519531 -11.113281 9.023438 -10.675781 9.390625 -10.125 L 9.390625 -15.59375 L 13 -15.59375 L 13 0 L 9.390625 0 L 9.390625 -1.6875 C 9.054688 -1.125 8.578125 -0.671875 7.953125 -0.328125 C 7.328125 0.00390625 6.597656 0.171875 5.765625 0.171875 C 4.796875 0.171875 3.914062 -0.078125 3.125 -0.578125 C 2.34375 -1.078125 1.722656 -1.785156 1.265625 -2.703125 C 0.816406 -3.628906 0.59375 -4.691406 0.59375 -5.890625 Z M 9.390625 -5.875 C 9.390625 -6.769531 9.140625 -7.476562 8.640625 -8 C 8.148438 -8.519531 7.546875 -8.78125 6.828125 -8.78125 C 6.109375 -8.78125 5.5 -8.523438 5 -8.015625 C 4.5 -7.503906 4.25 -6.796875 4.25 -5.890625 C 4.25 -4.992188 4.5 -4.28125 5 -3.75 C 5.5 -3.226562 6.109375 -2.96875 6.828125 -2.96875 C 7.546875 -2.96875 8.148438 -3.226562 8.640625 -3.75 C 9.140625 -4.269531 9.390625 -4.976562 9.390625 -5.875 Z M 9.390625 -5.875 "/></g></g></g><g fill="#000000" fill-opacity="1"><g transform="translate(105.181448, 44.220128)"><g/></g></g></svg>