<svg xmlns="http://www.w3.org/2000/svg" xmlns:xlink="http://www.w3.org/1999/xlink" width="150" zoomAndPan="magnify" viewBox="0 0 112.5 37.5" height="50" preserveAspectRatio="xMidYMid meet" version="1.0"><defs><g/></defs><g fill="#ffffff" fill-opacity="1"><g transform="translate(8.805315, 24.79441)"><g><path d="M 11.484375 -13.03125 L 11.484375 0 L 9.78125 0 L 9.78125 -5.90625 L 3.140625 -5.90625 L 3.140625 0 L 1.4375 0 L 1.4375 -13.03125 L 3.140625 -13.03125 L 3.140625 -7.3125 L 9.78125 -7.3125 L 9.78125 -13.03125 Z M 11.484375 -13.03125 "/></g></g></g><g fill="#ffffff" fill-opacity="1"><g transform="translate(21.745669, 24.79441)"><g><path d="M 0.796875 -5.15625 C 0.796875 -6.207031 1.007812 -7.128906 1.4375 -7.921875 C 1.863281 -8.710938 2.445312 -9.328125 3.1875 -9.765625 C 3.925781 -10.203125 4.753906 -10.421875 5.671875 -10.421875 C 6.566406 -10.421875 7.34375 -10.226562 8 -9.84375 C 8.664062 -9.457031 9.160156 -8.96875 9.484375 -8.375 L 9.484375 -10.25 L 11.203125 -10.25 L 11.203125 0 L 9.484375 0 L 9.484375 -1.90625 C 9.148438 -1.3125 8.644531 -0.816406 7.96875 -0.421875 C 7.300781 -0.0234375 6.523438 0.171875 5.640625 0.171875 C 4.734375 0.171875 3.910156 -0.0507812 3.171875 -0.5 C 2.441406 -0.945312 1.863281 -1.578125 1.4375 -2.390625 C 1.007812 -3.203125 0.796875 -4.125 0.796875 -5.15625 Z M 9.484375 -5.140625 C 9.484375 -5.910156 9.328125 -6.582031 9.015625 -7.15625 C 8.703125 -7.738281 8.28125 -8.179688 7.75 -8.484375 C 7.21875 -8.785156 6.632812 -8.9375 6 -8.9375 C 5.363281 -8.9375 4.785156 -8.785156 4.265625 -8.484375 C 3.742188 -8.191406 3.328125 -7.757812 3.015625 -7.1875 C 2.703125 -6.613281 2.546875 -5.9375 2.546875 -5.15625 C 2.546875 -4.375 2.703125 -3.691406 3.015625 -3.109375 C 3.328125 -2.535156 3.742188 -2.09375 4.265625 -1.78125 C 4.785156 -1.476562 5.363281 -1.328125 6 -1.328125 C 6.632812 -1.328125 7.21875 -1.476562 7.75 -1.78125 C 8.28125 -2.09375 8.703125 -2.535156 9.015625 -3.109375 C 9.328125 -3.691406 9.484375 -4.367188 9.484375 -5.140625 Z M 9.484375 -5.140625 "/></g></g></g><g fill="#ffffff" fill-opacity="1"><g transform="translate(34.386825, 24.79441)"><g><path d="M 13.765625 -10.4375 C 14.566406 -10.4375 15.273438 -10.269531 15.890625 -9.9375 C 16.515625 -9.601562 17.007812 -9.109375 17.375 -8.453125 C 17.738281 -7.796875 17.921875 -6.992188 17.921875 -6.046875 L 17.921875 0 L 16.234375 0 L 16.234375 -5.796875 C 16.234375 -6.816406 15.976562 -7.597656 15.46875 -8.140625 C 14.96875 -8.679688 14.285156 -8.953125 13.421875 -8.953125 C 12.535156 -8.953125 11.832031 -8.664062 11.3125 -8.09375 C 10.789062 -7.53125 10.53125 -6.710938 10.53125 -5.640625 L 10.53125 0 L 8.84375 0 L 8.84375 -5.796875 C 8.84375 -6.816406 8.585938 -7.597656 8.078125 -8.140625 C 7.578125 -8.679688 6.898438 -8.953125 6.046875 -8.953125 C 5.160156 -8.953125 4.453125 -8.664062 3.921875 -8.09375 C 3.398438 -7.53125 3.140625 -6.710938 3.140625 -5.640625 L 3.140625 0 L 1.4375 0 L 1.4375 -10.25 L 3.140625 -10.25 L 3.140625 -8.765625 C 3.472656 -9.304688 3.921875 -9.71875 4.484375 -10 C 5.054688 -10.289062 5.6875 -10.4375 6.375 -10.4375 C 7.238281 -10.4375 8 -10.242188 8.65625 -9.859375 C 9.320312 -9.472656 9.816406 -8.90625 10.140625 -8.15625 C 10.421875 -8.875 10.890625 -9.429688 11.546875 -9.828125 C 12.210938 -10.234375 12.953125 -10.4375 13.765625 -10.4375 Z M 13.765625 -10.4375 "/></g></g></g><g fill="#ffffff" fill-opacity="1"><g transform="translate(53.647762, 24.79441)"><g><path d="M 13.765625 -10.4375 C 14.566406 -10.4375 15.273438 -10.269531 15.890625 -9.9375 C 16.515625 -9.601562 17.007812 -9.109375 17.375 -8.453125 C 17.738281 -7.796875 17.921875 -6.992188 17.921875 -6.046875 L 17.921875 0 L 16.234375 0 L 16.234375 -5.796875 C 16.234375 -6.816406 15.976562 -7.597656 15.46875 -8.140625 C 14.96875 -8.679688 14.285156 -8.953125 13.421875 -8.953125 C 12.535156 -8.953125 11.832031 -8.664062 11.3125 -8.09375 C 10.789062 -7.53125 10.53125 -6.710938 10.53125 -5.640625 L 10.53125 0 L 8.84375 0 L 8.84375 -5.796875 C 8.84375 -6.816406 8.585938 -7.597656 8.078125 -8.140625 C 7.578125 -8.679688 6.898438 -8.953125 6.046875 -8.953125 C 5.160156 -8.953125 4.453125 -8.664062 3.921875 -8.09375 C 3.398438 -7.53125 3.140625 -6.710938 3.140625 -5.640625 L 3.140625 0 L 1.4375 0 L 1.4375 -10.25 L 3.140625 -10.25 L 3.140625 -8.765625 C 3.472656 -9.304688 3.921875 -9.71875 4.484375 -10 C 5.054688 -10.289062 5.6875 -10.4375 6.375 -10.4375 C 7.238281 -10.4375 8 -10.242188 8.65625 -9.859375 C 9.320312 -9.472656 9.816406 -8.90625 10.140625 -8.15625 C 10.421875 -8.875 10.890625 -9.429688 11.546875 -9.828125 C 12.210938 -10.234375 12.953125 -10.4375 13.765625 -10.4375 Z M 13.765625 -10.4375 "/></g></g></g><g fill="#ffffff" fill-opacity="1"><g transform="translate(72.908699, 24.79441)"><g><path d="M 0.796875 -5.15625 C 0.796875 -6.207031 1.007812 -7.128906 1.4375 -7.921875 C 1.863281 -8.710938 2.445312 -9.328125 3.1875 -9.765625 C 3.925781 -10.203125 4.753906 -10.421875 5.671875 -10.421875 C 6.566406 -10.421875 7.34375 -10.226562 8 -9.84375 C 8.664062 -9.457031 9.160156 -8.96875 9.484375 -8.375 L 9.484375 -10.25 L 11.203125 -10.25 L 11.203125 0 L 9.484375 0 L 9.484375 -1.90625 C 9.148438 -1.3125 8.644531 -0.816406 7.96875 -0.421875 C 7.300781 -0.0234375 6.523438 0.171875 5.640625 0.171875 C 4.734375 0.171875 3.910156 -0.0507812 3.171875 -0.5 C 2.441406 -0.945312 1.863281 -1.578125 1.4375 -2.390625 C 1.007812 -3.203125 0.796875 -4.125 0.796875 -5.15625 Z M 9.484375 -5.140625 C 9.484375 -5.910156 9.328125 -6.582031 9.015625 -7.15625 C 8.703125 -7.738281 8.28125 -8.179688 7.75 -8.484375 C 7.21875 -8.785156 6.632812 -8.9375 6 -8.9375 C 5.363281 -8.9375 4.785156 -8.785156 4.265625 -8.484375 C 3.742188 -8.191406 3.328125 -7.757812 3.015625 -7.1875 C 2.703125 -6.613281 2.546875 -5.9375 2.546875 -5.15625 C 2.546875 -4.375 2.703125 -3.691406 3.015625 -3.109375 C 3.328125 -2.535156 3.742188 -2.09375 4.265625 -1.78125 C 4.785156 -1.476562 5.363281 -1.328125 6 -1.328125 C 6.632812 -1.328125 7.21875 -1.476562 7.75 -1.78125 C 8.28125 -2.09375 8.703125 -2.535156 9.015625 -3.109375 C 9.328125 -3.691406 9.484375 -4.367188 9.484375 -5.140625 Z M 9.484375 -5.140625 "/></g></g></g><g fill="#ffffff" fill-opacity="1"><g transform="translate(85.549855, 24.79441)"><g><path d="M 0.796875 -5.15625 C 0.796875 -6.207031 1.007812 -7.128906 1.4375 -7.921875 C 1.863281 -8.710938 2.445312 -9.328125 3.1875 -9.765625 C 3.925781 -10.203125 4.757812 -10.421875 5.6875 -10.421875 C 6.476562 -10.421875 7.21875 -10.234375 7.90625 -9.859375 C 8.59375 -9.492188 9.117188 -9.015625 9.484375 -8.421875 L 9.484375 -13.84375 L 11.203125 -13.84375 L 11.203125 0 L 9.484375 0 L 9.484375 -1.921875 C 9.148438 -1.316406 8.648438 -0.816406 7.984375 -0.421875 C 7.328125 -0.0234375 6.554688 0.171875 5.671875 0.171875 C 4.753906 0.171875 3.925781 -0.0507812 3.1875 -0.5 C 2.445312 -0.945312 1.863281 -1.578125 1.4375 -2.390625 C 1.007812 -3.203125 0.796875 -4.125 0.796875 -5.15625 Z M 9.484375 -5.140625 C 9.484375 -5.910156 9.328125 -6.582031 9.015625 -7.15625 C 8.703125 -7.738281 8.28125 -8.179688 7.75 -8.484375 C 7.21875 -8.785156 6.632812 -8.9375 6 -8.9375 C 5.363281 -8.9375 4.785156 -8.785156 4.265625 -8.484375 C 3.742188 -8.191406 3.328125 -7.757812 3.015625 -7.1875 C 2.703125 -6.613281 2.546875 -5.9375 2.546875 -5.15625 C 2.546875 -4.375 2.703125 -3.691406 3.015625 -3.109375 C 3.328125 -2.535156 3.742188 -2.09375 4.265625 -1.78125 C 4.785156 -1.476562 5.363281 -1.328125 6 -1.328125 C 6.632812 -1.328125 7.21875 -1.476562 7.75 -1.78125 C 8.28125 -2.09375 8.703125 -2.535156 9.015625 -3.109375 C 9.328125 -3.691406 9.484375 -4.367188 9.484375 -5.140625 Z M 9.484375 -5.140625 "/></g></g></g><g fill="#ffffff" fill-opacity="1"><g transform="translate(98.199334, 24.79441)"><g/></g></g></svg>